<?xml version="1.0" encoding="UTF-8" standalone="no"?>
<!DOCTYPE svg PUBLIC "-//W3C//DTD SVG 1.1//EN" "http://www.w3.org/Graphics/SVG/1.1/DTD/svg11.dtd">
<svg width="100%" height="100%" viewBox="0 0 1000 300" version="1.1" xmlns="http://www.w3.org/2000/svg" xmlns:xlink="http://www.w3.org/1999/xlink" xml:space="preserve" xmlns:serif="http://www.serif.com/" style="fill-rule:evenodd;clip-rule:evenodd;stroke-linejoin:round;stroke-miterlimit:2;">
    <g id="logo-color" serif:id="logo color" transform="matrix(1.70068,0,0,0.6,-1891.16,0)">
        <rect x="1112" y="0" width="588" height="500" style="fill:none;"/>
        <clipPath id="_clip1">
            <rect x="1112" y="0" width="588" height="500"/>
        </clipPath>
        <g clip-path="url(#_clip1)">
            <g transform="matrix(1,0,0,1,0,15.569)">
                <g transform="matrix(0.763348,0,0,4.46627,-6675.11,-3713.57)">
                    <g transform="matrix(108.282,0,0,52.4573,10433.1,903.712)">
                        <path d="M0.785,-0L0.728,-0.638L0.638,-0.638L0.486,-0.34C0.462,-0.293 0.434,-0.235 0.416,-0.19L0.414,-0.19C0.395,-0.236 0.365,-0.296 0.342,-0.34L0.187,-0.638L0.093,-0.638L0.038,-0L0.153,-0L0.176,-0.262C0.179,-0.298 0.183,-0.347 0.184,-0.392L0.186,-0.392C0.205,-0.348 0.228,-0.298 0.248,-0.259L0.384,0.004L0.433,0.004L0.567,-0.259C0.587,-0.298 0.613,-0.35 0.63,-0.393L0.632,-0.393C0.633,-0.349 0.637,-0.301 0.64,-0.262L0.663,-0L0.785,-0Z" style="fill:rgb(28,46,74);fill-rule:nonzero;"/>
                    </g>
                    <g transform="matrix(108.282,0,0,52.4573,10522.2,903.712)">
                        <path d="M0.609,-0L0.348,-0.645L0.277,-0.645L0.015,-0L0.136,-0L0.197,-0.154L0.422,-0.154L0.483,-0L0.609,-0ZM0.386,-0.253L0.232,-0.253L0.285,-0.39C0.292,-0.409 0.302,-0.435 0.308,-0.459L0.31,-0.459C0.317,-0.435 0.326,-0.409 0.333,-0.39L0.386,-0.253Z" style="fill:rgb(28,46,74);fill-rule:nonzero;"/>
                    </g>
                    <g transform="matrix(108.282,0,0,52.4573,10582.8,903.712)">
                        <path d="M0.58,-0.638L0.46,-0.638L0.351,-0.345C0.335,-0.301 0.318,-0.249 0.304,-0.199L0.302,-0.199C0.287,-0.25 0.27,-0.302 0.254,-0.345L0.145,-0.638L0.015,-0.638L0.258,0.007L0.337,0.007L0.58,-0.638Z" style="fill:rgb(28,46,74);fill-rule:nonzero;"/>
                    </g>
                    <g transform="matrix(108.282,0,0,52.4573,10647.3,903.712)">
                        <path d="M0.446,-0L0.446,-0.105L0.183,-0.105L0.183,-0.267L0.375,-0.267L0.375,-0.373L0.183,-0.373L0.183,-0.533L0.414,-0.533L0.414,-0.638L0.058,-0.638L0.058,-0L0.446,-0Z" style="fill:rgb(28,46,74);fill-rule:nonzero;"/>
                    </g>
                    <g transform="matrix(108.282,0,0,52.4573,10696.2,903.712)">
                        <path d="M0.644,0.01L0.644,-0.638L0.521,-0.638L0.521,-0.367C0.521,-0.324 0.521,-0.276 0.523,-0.232L0.521,-0.231C0.487,-0.274 0.435,-0.332 0.401,-0.369L0.155,-0.638L0.058,-0.638L0.058,0L0.181,0L0.181,-0.296C0.181,-0.34 0.181,-0.391 0.179,-0.443L0.181,-0.444C0.221,-0.397 0.27,-0.339 0.315,-0.29L0.59,0.01L0.644,0.01Z" style="fill:rgb(28,46,74);fill-rule:nonzero;"/>
                    </g>
                    <g transform="matrix(108.282,0,0,52.4573,10772.2,903.712)">
                        <path d="M0.452,-0.188C0.452,-0.301 0.378,-0.357 0.263,-0.393C0.205,-0.411 0.175,-0.433 0.175,-0.472C0.175,-0.51 0.207,-0.542 0.266,-0.542C0.313,-0.542 0.363,-0.522 0.387,-0.507L0.411,-0.61C0.386,-0.626 0.329,-0.646 0.262,-0.646C0.126,-0.646 0.054,-0.562 0.054,-0.465C0.054,-0.371 0.112,-0.307 0.231,-0.272C0.298,-0.252 0.326,-0.226 0.326,-0.178C0.326,-0.13 0.285,-0.099 0.223,-0.099C0.157,-0.099 0.092,-0.123 0.043,-0.159L0.056,-0.036C0.091,-0.013 0.156,0.007 0.226,0.007C0.374,0.007 0.452,-0.071 0.452,-0.188Z" style="fill:rgb(0,170,227);fill-rule:nonzero;"/>
                    </g>
                    <g transform="matrix(108.282,0,0,52.4573,10825.1,903.712)">
                        <rect x="0.068" y="-0.638" width="0.126" height="0.638" style="fill:rgb(0,170,227);fill-rule:nonzero;"/>
                    </g>
                    <g transform="matrix(108.282,0,0,52.4573,10853.5,903.712)">
                        <path d="M0.608,-0.319C0.608,-0.521 0.445,-0.638 0.264,-0.638L0.058,-0.638L0.058,-0L0.264,-0C0.445,-0 0.608,-0.117 0.608,-0.319ZM0.48,-0.318C0.48,-0.173 0.375,-0.103 0.248,-0.103L0.183,-0.103L0.183,-0.533L0.248,-0.533C0.375,-0.533 0.48,-0.463 0.48,-0.318Z" style="fill:rgb(0,170,227);fill-rule:nonzero;"/>
                    </g>
                    <g transform="matrix(108.282,0,0,52.4573,10923.3,903.712)">
                        <path d="M0.446,-0L0.446,-0.105L0.183,-0.105L0.183,-0.267L0.375,-0.267L0.375,-0.373L0.183,-0.373L0.183,-0.533L0.414,-0.533L0.414,-0.638L0.058,-0.638L0.058,-0L0.446,-0Z" style="fill:rgb(0,170,227);fill-rule:nonzero;"/>
                    </g>
                </g>
                <g transform="matrix(0.518836,0,0,1.72945,452.371,-122.769)">
                    <g transform="matrix(0.588,0,0,0.5,-3422.66,-37.0218)">
                        <path d="M8212,744.717L8326.49,515.744L8326.49,687.474L8212,744.717Z" style="fill:rgb(28,46,74);"/>
                    </g>
                    <g transform="matrix(-0.588,0,0,0.5,6234.66,-37.0218)">
                        <path d="M8212,744.717L8326.49,515.744L8326.49,687.474L8212,744.717Z" style="fill:rgb(28,46,74);"/>
                    </g>
                    <g transform="matrix(0.588,0,0,0.5,-3422.01,-36.7449)">
                        <path d="M8210.89,228.973L7981.92,343.46L8096.41,400.703L8210.89,629.677L8325.38,400.703L8439.87,343.46L8210.89,228.973Z" style="fill:rgb(166,166,166);"/>
                    </g>
                    <g transform="matrix(0.588,0,0,0.5,-3422.01,-36.7449)">
                        <path d="M7981.92,372.082L7981.92,629.677L8039.16,658.298L8039.16,400.703L7981.92,372.082Z" style="fill:rgb(28,46,74);"/>
                    </g>
                    <g transform="matrix(-0.588,0,0,0.5,6234.01,-36.7449)">
                        <path d="M7981.92,372.082L7981.92,629.677L8039.16,658.298L8039.16,400.703L7981.92,372.082Z" style="fill:rgb(28,46,74);"/>
                    </g>
                    <g transform="matrix(0.588,0,0,0.5,-3422.01,-36.7449)">
                        <path d="M8210.89,343.46L8210.89,629.677L8325.38,400.703L8210.89,343.46Z" style="fill:rgb(140,140,140);"/>
                    </g>
                    <g transform="matrix(-0.588,0,0,0.5,6234.01,-36.7449)">
                        <path d="M8210.89,343.46L8210.89,629.677L8325.38,400.703L8210.89,343.46Z" style="fill:rgb(153,153,153);"/>
                    </g>
                    <g transform="matrix(0.588,0,0,0.5,-3422.01,-36.7449)">
                        <path d="M7981.92,343.46L7981.92,372.082L8039.16,400.703L8039.16,658.298L8096.41,686.92L8096.41,521.027L8210.89,744.163L8325.38,515.19L8325.38,686.92L8382.62,658.298L8382.62,400.703L8439.87,372.082L8439.87,343.46L8325.38,400.703L8210.89,629.677L8096.41,400.703L7981.92,343.46Z" style="fill:rgb(228,245,252);"/>
                    </g>
                </g>
            </g>
        </g>
    </g>
</svg>
